<?xml version="1.0" standalone="no"?>
<!DOCTYPE svg PUBLIC "-//W3C//DTD SVG 20010904//EN"
 "http://www.w3.org/TR/2001/REC-SVG-20010904/DTD/svg10.dtd">
<svg version="1.0" xmlns="http://www.w3.org/2000/svg"
 width="1280.000000pt" height="902.000000pt" viewBox="0 0 1280.000000 902.000000"
 preserveAspectRatio="xMidYMid meet">
<metadata>
Created by potrace 1.15, written by Peter Selinger 2001-2017
</metadata>
<g transform="translate(0.000000,902.000000) scale(0.100000,-0.100000)"
fill="#000000" stroke="none">
<path d="M6330 9010 c-523 -65 -951 -282 -1325 -671 -97 -101 -224 -265 -284
-366 -20 -35 -40 -61 -46 -59 -5 3 -59 27 -120 54 -309 139 -612 197 -915 173
-975 -77 -1745 -803 -1875 -1767 -14 -102 -16 -166 -11 -323 3 -108 9 -216 12
-241 l5 -45 -81 -24 c-108 -32 -283 -118 -405 -198 -133 -88 -337 -292 -424
-423 -163 -244 -245 -480 -273 -775 -13 -150 -3 -275 37 -433 15 -57 25 -105
23 -106 -46 -27 -176 -137 -244 -208 -423 -437 -522 -1066 -255 -1613 183
-374 501 -644 897 -760 207 -61 108 -58 1800 -62 l1550 -4 17 -70 c10 -39 35
-117 57 -173 182 -464 601 -802 1115 -898 57 -10 636 -13 3005 -13 l2935 0
105 23 c241 53 427 140 615 287 256 200 440 489 514 805 106 457 -6 909 -315
1265 -63 72 -211 205 -273 245 l-23 16 20 79 c12 44 26 103 31 131 61 310 -32
749 -223 1043 -43 67 -46 76 -46 139 -1 439 -137 844 -403 1202 -86 115 -293
323 -404 405 l-80 60 5 126 c14 363 -111 778 -336 1115 -377 564 -999 903
-1662 906 -155 0 -207 -8 -428 -73 -58 -17 -108 -27 -112 -22 -5 4 -33 55 -64
111 -331 609 -913 1023 -1581 1127 -121 19 -431 27 -535 15z"/>
</g>
</svg>
